<?xml version="1.0" standalone="no"?>
<!DOCTYPE svg PUBLIC "-//W3C//DTD SVG 20010904//EN"
 "http://www.w3.org/TR/2001/REC-SVG-20010904/DTD/svg10.dtd">
<svg version="1.0" xmlns="http://www.w3.org/2000/svg"
 width="820.000000pt" height="820.000000pt" viewBox="0 0 820.000000 820.000000"
 preserveAspectRatio="xMidYMid meet">
<metadata>
Created by potrace 1.14, written by Peter Selinger 2001-2017
</metadata>
<g transform="translate(0.000000,820.000000) scale(0.100000,-0.100000)"
fill="#000000" stroke="none">
<path d="M6225 4863 c-117 -21 -146 -29 -187 -50 -127 -63 -188 -180 -140
-268 30 -57 85 -92 251 -165 132 -57 174 -88 205 -148 38 -74 3 -187 -84 -272
-180 -176 -550 -204 -704 -54 -48 47 -68 93 -71 169 -4 104 56 240 135 305 54
44 26 57 -38 16 -75 -47 -155 -169 -167 -253 -3 -21 -8 -43 -10 -50 -6 -19 20
-116 40 -148 73 -117 240 -183 435 -171 107 6 134 10 205 33 152 49 300 165
356 280 43 88 20 188 -58 252 -20 17 -102 63 -182 102 -80 39 -156 79 -170 90
-61 49 -76 109 -41 166 74 122 372 172 465 79 55 -55 41 -136 -27 -154 -18 -4
-33 -13 -36 -20 -11 -35 106 13 133 54 47 72 2 161 -100 194 -38 12 -169 21
-210 13z"/>
<path d="M1903 4843 c-16 -8 -44 -31 -63 -52 -31 -35 -43 -40 -110 -51 -452
-71 -654 -182 -652 -360 0 -78 24 -125 81 -162 41 -26 53 -29 111 -26 103 6
184 58 226 146 24 50 25 155 2 178 -23 23 -42 10 -26 -19 41 -77 -38 -227
-138 -262 -98 -33 -177 33 -168 141 8 104 89 185 245 247 76 30 240 72 324 82
l56 7 -26 -38 c-15 -22 -76 -140 -136 -264 -60 -124 -117 -238 -125 -255 -9
-16 -32 -61 -52 -100 -87 -170 -255 -390 -364 -476 -150 -118 -327 -149 -471
-80 -102 49 -154 125 -164 240 -8 98 14 165 78 236 29 30 49 59 45 62 -14 15
-97 -39 -135 -87 -47 -59 -64 -111 -64 -195 0 -117 43 -199 136 -262 124 -84
346 -92 524 -21 195 79 394 296 521 568 50 107 62 139 152 390 52 146 113 279
132 291 6 4 27 10 47 13 20 3 48 16 63 28 63 53 23 118 -49 81z m27 -42 c0
-12 -42 -42 -49 -36 -5 6 29 45 41 45 4 0 8 -4 8 -9z"/>
<path d="M3605 4813 c-140 -18 -309 -111 -449 -248 l-60 -58 -43 23 c-60 32
-88 74 -86 127 1 24 -2 45 -7 48 -16 10 -37 -36 -35 -75 3 -51 40 -99 98 -130
l44 -23 -57 -86 c-94 -142 -139 -272 -134 -393 4 -113 60 -172 164 -171 95 1
200 60 329 185 35 35 61 54 57 43 -15 -37 -18 -142 -7 -178 7 -19 20 -42 30
-51 38 -34 126 -23 188 24 16 11 48 24 72 28 39 6 46 12 73 62 72 131 196 265
227 246 6 -4 -9 -42 -35 -91 -61 -118 -60 -191 3 -212 44 -15 87 2 132 53 35
40 41 44 41 24 0 -29 50 -75 86 -78 52 -4 108 47 202 184 11 16 12 7 8 -58 -9
-126 -17 -137 -127 -176 -235 -82 -330 -152 -329 -244 1 -59 41 -89 121 -90
122 0 263 118 353 298 25 51 46 78 74 97 22 14 49 42 62 61 20 34 47 50 37 24
-7 -20 19 -63 49 -83 34 -22 102 -22 150 1 19 9 50 35 69 57 l35 41 0 -32 c0
-79 91 -111 170 -58 41 27 130 163 130 199 0 29 -15 12 -56 -60 -65 -116 -137
-164 -165 -111 -30 57 1 160 71 233 88 94 197 284 218 382 20 89 -37 121 -106
59 -58 -53 -148 -231 -213 -421 -60 -177 -140 -275 -224 -275 -30 0 -37 5 -46
28 -11 28 -7 107 5 119 4 4 12 8 19 9 43 7 130 50 157 77 70 70 76 149 14 166
-86 24 -185 -59 -268 -223 -43 -84 -120 -186 -131 -174 -2 2 0 21 5 43 9 43
12 96 11 188 -1 51 -3 57 -22 57 -34 0 -55 -17 -74 -62 -27 -61 -92 -159 -124
-184 -56 -45 -95 -38 -93 16 1 44 18 83 64 152 48 71 73 98 122 132 51 34 80
33 108 -4 23 -32 40 -35 44 -8 5 37 -82 79 -145 71 -98 -14 -176 -90 -252
-248 -51 -105 -136 -185 -152 -142 -10 28 9 84 74 217 l68 140 -27 0 c-38 0
-143 -64 -215 -129 -57 -53 -58 -54 -38 -18 35 62 75 122 88 130 23 14 14 23
-27 25 -54 4 -71 -16 -155 -181 -37 -72 -79 -147 -93 -165 -38 -50 -101 -92
-138 -92 -28 0 -34 5 -43 33 -22 64 8 184 75 306 20 36 48 79 62 96 56 67 64
139 13 133 -20 -2 -36 -19 -68 -68 -148 -229 -326 -410 -456 -465 -59 -24
-120 -20 -151 11 -14 15 -26 36 -27 48 0 11 -2 28 -4 37 -1 9 3 43 11 75 23
102 175 385 206 383 7 0 47 -6 88 -14 152 -28 398 -2 508 54 105 53 140 111
133 218 -2 31 -47 81 -90 99 -36 15 -138 24 -196 17z m181 -56 c63 -33 69
-123 12 -187 -49 -55 -119 -88 -238 -110 -74 -14 -263 -13 -329 3 l-53 12 62
68 c104 113 222 194 327 222 64 17 180 13 219 -8z m1487 -231 c-49 -112 -127
-247 -181 -312 -35 -42 -34 -35 6 56 66 152 139 285 166 302 15 10 20 -19 9
-46z m-357 -261 c20 -52 -92 -165 -163 -165 -18 0 57 110 104 151 38 33 51 36
59 14z m-527 -467 c-52 -100 -146 -201 -221 -239 -104 -53 -168 -27 -134 54
27 65 106 116 272 177 97 35 97 35 83 8z"/>
<path d="M7018 4624 c-15 -8 -40 -33 -56 -57 -56 -81 -151 -289 -191 -417 -41
-132 -136 -253 -184 -234 -34 13 -20 68 68 265 51 113 50 119 -20 119 -39 0
-40 -1 -41 -37 0 -21 -19 -87 -43 -147 -60 -154 -55 -219 17 -232 47 -9 89 12
134 70 23 28 38 41 34 29 -11 -35 18 -91 51 -98 15 -4 33 -8 40 -10 27 -9 109
45 137 90 16 25 30 45 32 45 1 0 0 -22 -3 -49 -4 -40 -1 -52 16 -68 49 -46
131 -12 195 81 22 33 42 54 44 47 8 -23 52 -32 82 -17 28 13 28 13 28 -19 0
-67 25 -104 70 -105 41 0 89 36 131 99 l16 25 7 -49 c8 -56 27 -75 75 -75 25
0 42 9 71 38 46 46 118 180 104 194 -6 6 -19 -10 -37 -44 -60 -115 -105 -162
-136 -142 -29 17 23 173 82 247 16 20 26 37 22 38 -4 0 -17 2 -28 5 -43 8 -69
-15 -130 -118 -70 -118 -126 -181 -158 -176 -82 12 55 278 174 338 48 25 65
25 86 0 21 -24 46 -26 41 -4 -10 52 -118 74 -190 40 -56 -27 -121 -95 -168
-178 -45 -79 -70 -103 -100 -93 -32 10 -32 41 -1 117 64 154 65 205 4 177 -43
-21 -65 -77 -69 -175 -2 -68 -7 -91 -28 -126 -36 -62 -79 -100 -107 -96 -33 4
-32 33 9 153 20 61 34 123 35 160 2 66 -5 73 -70 60 -29 -5 -32 -9 -22 -21 20
-24 2 -101 -46 -200 -78 -160 -177 -217 -190 -109 -9 65 19 135 75 196 94 101
212 306 225 392 12 78 -23 107 -87 71z m52 -78 c-12 -54 -54 -139 -120 -240
-109 -169 -109 -138 0 88 75 154 139 235 120 152z"/>
<path d="M2684 4445 c-107 -110 -66 -118 69 -13 39 32 50 71 21 82 -19 7 -6
17 -90 -69z"/>
<path d="M6683 4458 c-25 -12 -33 -35 -22 -66 17 -45 92 -18 92 32 0 42 -27
55 -70 34z"/>
<path d="M2264 4362 c-36 -5 -80 -62 -144 -182 -63 -118 -99 -160 -137 -160
-32 0 -34 10 -12 70 66 190 -68 290 -205 152 -116 -115 -143 -317 -48 -353 58
-23 143 16 191 86 13 19 28 32 34 28 6 -3 22 -7 36 -8 15 -1 25 -7 23 -14 -5
-24 30 -79 58 -91 16 -7 66 -12 112 -12 107 -1 149 20 188 92 12 22 22 20 26
-4 8 -57 52 -89 120 -88 85 2 135 42 203 163 35 62 36 69 18 69 -6 0 -23 -21
-37 -47 -49 -94 -118 -153 -179 -153 -37 0 -51 22 -51 84 0 45 18 76 45 76 8
0 38 11 67 23 94 42 157 142 123 194 -16 23 -28 27 -78 24 -54 -3 -149 -82
-188 -158 -7 -15 -16 -30 -19 -33 -3 -3 -22 -40 -43 -82 -37 -73 -84 -128
-110 -128 -9 0 -9 2 -1 8 19 12 44 69 48 111 3 32 -4 58 -31 114 -40 81 -46
119 -26 160 14 27 21 31 61 27 13 -1 22 4 22 13 0 16 -31 24 -66 19z m398
-117 c-5 -44 -51 -96 -112 -127 -29 -16 -56 -26 -58 -23 -8 7 46 84 96 137 51
55 79 59 74 13z m-724 3 c10 -13 15 -39 13 -72 -1 -12 -6 -16 -16 -12 -26 10
-54 -28 -48 -66 3 -18 9 -40 13 -48 6 -10 0 -26 -18 -50 -25 -33 -71 -79 -82
-81 -3 0 -13 -2 -22 -4 -61 -11 -52 123 15 240 48 84 116 128 145 93z m258
-16 c-2 -4 2 -37 9 -72 26 -118 12 -204 -37 -234 -26 -15 -56 18 -64 70 -3 24
-10 44 -16 44 -5 0 14 45 42 100 29 55 56 100 62 100 5 0 7 -4 4 -8z m-91
-330 c-9 -10 -43 30 -40 46 2 9 4 21 4 27 1 5 10 -8 21 -30 11 -21 18 -41 15
-43z"/>
</g>
</svg>
